<svg width="423" height="423" viewBox="0 0 423 423" fill="none" xmlns="http://www.w3.org/2000/svg">
<path opacity="0.502" fill-rule="evenodd" clip-rule="evenodd" d="M211.023 422.047C94.479 422.047 0 327.569 0 211.024C0 94.478 94.479 0 211.023 0C327.569 0 422.047 94.478 422.047 211.024C422.047 327.569 327.569 422.047 211.023 422.047V422.047ZM212.504 52.123C124.839 52.123 53.771 123.19 53.771 210.856C53.771 298.521 124.839 369.589 212.504 369.589C300.17 369.589 371.237 298.521 371.237 210.856C371.237 123.19 300.17 52.123 212.504 52.123V52.123ZM120.598 303.177L172.55 170.919L303.571 118.968L250.384 249.99L120.598 303.177V303.177ZM211.413 185.037C196.846 185.037 185.038 196.846 185.038 211.412C185.038 225.979 196.846 237.788 211.413 237.788C225.979 237.788 237.788 225.979 237.788 211.412C237.788 196.846 225.979 185.037 211.413 185.037Z" fill="white"/>
</svg>
